# File created by Blade
# Date/Time:  Tue Apr 07 20:53:11 2015
# Frame Rate: 120.000 fps
#------------------------------------------------------
:FULLY-SPECIFIED
:DEGREES
931
root 39.114998 31.838834 3.453326 88.395796 -82.665480 -425.475544
Spine -21.421556 -5.712624 9.876748
Head 9.228778 -2.447311 2.165661
LeftShoulder -24.633685 22.155345 35.140499
LeftArm 139.458870 -80.637878 -127.202870
LeftForeArm 19.146309 -0.000000 23.816785
LeftHand -3.299144 -0.000000 8.849286
LeftHandThumb1 -26.253704 0.000000 33.147579
RightShoulder -19.861118 21.948114 -51.824448
RightArm 30.297490 30.695119 19.772492
RightForeArm -31.607075 -0.000000 12.157765
RightHand -11.890339 -0.000000 22.276856
RightHandThumb1 -24.326973 -0.000000 -32.862282
LeftUpLeg -10.563675 -4.946512 2.301401
LeftLeg 1.165030 -0.000000 -0.000000
LeftFoot -11.909520 13.893651 -12.195177
LeftToeBase -16.246803 -0.000000 0.000000
RightUpLeg -27.629393 5.138665 6.856895
RightLeg 13.927984 -0.000000 -0.000000
RightFoot -11.820586 -13.520245 9.760742
RightToeBase -6.460503 -0.000000 0.000000
932
root 39.196999 31.832619 3.451998 92.932357 -82.606441 -429.937271
Spine -21.348334 -5.410806 9.960674
Head 9.410790 -2.296340 2.227861
LeftShoulder -24.626848 22.160251 35.043667
LeftArm 140.307338 -80.920180 -129.142649
LeftForeArm 19.093471 -0.000000 24.674423
LeftHand -3.329792 -0.000000 8.723063
LeftHandThumb1 -26.253704 0.000000 33.147579
RightShoulder -19.658080 21.650303 -51.495354
RightArm 29.719483 30.497745 19.717478
RightForeArm -31.571770 0.000000 12.452296
RightHand -11.702375 0.000000 22.064004
RightHandThumb1 -24.326973 -0.000000 -32.862282
LeftUpLeg -10.640604 -5.243468 2.475724
LeftLeg 0.996537 -0.000000 -0.000000
LeftFoot -12.158190 14.937302 -11.853499
LeftToeBase -15.871183 -0.000000 0.000000
RightUpLeg -28.568100 5.872681 6.746632
RightLeg 15.395388 -0.000000 -0.000000
RightFoot -12.521535 -13.426694 11.076629
RightToeBase -6.951283 -0.000000 0.000000
933
root 39.263173 31.830988 3.455261 96.836834 -82.663095 -434.003076
Spine -21.103356 -5.233150 9.819709
Head 9.807402 -1.953466 2.457635
LeftShoulder -24.435222 22.373966 35.091039
LeftArm 140.929389 -81.363416 -131.078026
LeftForeArm 18.889664 -0.000000 25.559616
LeftHand -3.362811 -0.000000 9.331049
LeftHandThumb1 -26.253704 0.000000 33.147579
RightShoulder -19.316348 21.363375 -51.127196
RightArm 29.045100 30.215941 19.778575
RightForeArm -31.540460 -0.000000 12.724516
RightHand -11.535580 -0.000000 21.308169
RightHandThumb1 -24.326973 -0.000000 -32.862282
LeftUpLeg -10.502119 -5.475376 2.471774
LeftLeg 0.941447 -0.000000 -0.000000
LeftFoot -12.367097 15.692137 -11.738250
LeftToeBase -15.447087 -0.000000 0.000000
RightUpLeg -29.242065 6.463504 6.533279
RightLeg 16.869589 -0.000000 -0.000000
RightFoot -13.254987 -13.164153 12.409096
RightToeBase -7.528967 -0.000000 0.000000
934
root 39.312683 31.831929 3.464282 100.161890 -82.846465 -437.723203
Spine -20.622143 -5.190670 9.482746
Head 10.265586 -1.771568 2.662510
LeftShoulder -24.248574 22.842249 35.099469
LeftArm 141.363782 -81.869188 -132.955626
LeftForeArm 18.465191 0.000000 26.455918
LeftHand -3.033131 0.000000 9.440274
LeftHandThumb1 -26.253704 0.000000 33.147579
RightShoulder -18.940386 21.026692 -50.763793
RightArm 28.322411 29.881477 19.969523
RightForeArm -31.577980 0.000000 12.968053
RightHand -10.926659 -0.000000 20.198775
RightHandThumb1 -24.326973 -0.000000 -32.862282
LeftUpLeg -10.186626 -5.549339 2.275250
LeftLeg 1.066416 -0.000000 -0.000000
LeftFoot -12.589683 16.041189 -11.851467
LeftToeBase -15.146730 -0.000000 0.000000
RightUpLeg -29.690331 6.815185 6.258039
RightLeg 18.443334 -0.000000 -0.000000
RightFoot -14.069302 -12.773301 13.552745
RightToeBase -7.213111 -0.000000 0.000000
935
root 39.354707 31.836356 3.471943 102.786682 -83.144114 -440.872793
Spine -20.021073 -5.359441 8.986090
Head 10.748315 -1.533046 2.951866
LeftShoulder -24.108779 23.371485 35.146959
LeftArm 140.916455 -82.362708 -134.015591
LeftForeArm 18.184680 -0.000000 27.331085
LeftHand -2.791970 -0.000000 9.824473
LeftHandThumb1 -26.253704 0.000000 33.147579
RightShoulder -18.493306 20.673304 -50.338041
RightArm 27.596259 29.382841 20.190607
RightForeArm -31.690745 -0.000000 13.108335
RightHand -10.384429 -0.000000 19.109716
RightHandThumb1 -24.326973 -0.000000 -32.862282
LeftUpLeg -9.830414 -5.591306 1.950928
LeftLeg 1.415858 -0.000000 -0.000000
LeftFoot -12.910142 16.039814 -12.395451
LeftToeBase -14.868229 -0.000000 0.000000
RightUpLeg -30.075146 6.943865 5.944184
RightLeg 20.182235 -0.000000 -0.000000
RightFoot -14.782367 -12.539238 14.177060
RightToeBase -6.770083 -0.000000 0.000000
936
root 39.389409 31.842222 3.469448 104.515829 -83.427800 -443.235756
Spine -19.312563 -5.654980 8.479677
Head 11.257292 -1.359940 3.210363
LeftShoulder -23.932053 23.941020 35.181943
LeftArm 139.659771 -82.950325 -134.251595
LeftForeArm 17.976395 -0.000000 28.065676
LeftHand -2.454907 0.000000 10.113047
LeftHandThumb1 -26.253704 0.000000 33.147579
RightShoulder -18.219263 20.596509 -50.070995
RightArm 26.971109 28.380483 20.551309
RightForeArm -31.618878 -0.000000 13.084862
RightHand -9.927411 -0.000000 17.541794
RightHandThumb1 -24.326973 -0.000000 -32.862282
LeftUpLeg -9.442712 -5.538464 1.655903
LeftLeg 1.948801 -0.000000 -0.000000
LeftFoot -13.316740 15.610344 -13.119436
LeftToeBase -14.478931 -0.000000 0.000000
RightUpLeg -30.359133 6.997667 5.693178
RightLeg 21.975316 -0.000000 -0.000000
RightFoot -15.468379 -12.608836 14.375550
RightToeBase -6.335882 -0.000000 0.000000
